<svg xmlns="http://www.w3.org/2000/svg" width="24" height="24" viewBox="0 0 24 24">
  <path fill="#9E9E9E" d="M12 7c-2.76 0-5 2.24-5 5s2.24 5 5 5 5-2.24 5-5-2.24-5-5-5zm0 9c-2.21 0-4-1.79-4-4s1.79-4 4-4 4 1.79 4 4-1.79 4-4 4zM2 12.89V12c0-4.08 3.05-7.44 7-7.93v2.07c-2.73.46-4.91 2.66-5.36 5.39H2v1.36h1.64c.45 2.73 2.63 4.93 5.36 5.39v2.07c-3.95-.49-7-3.85-7-7.93zm10-9.89v2.07c2.73.46 4.91 2.66 5.36 5.39H19v1.36h-1.64c-.45 2.73-2.63 4.93-5.36 5.39v2.07c3.95-.49 7-3.85 7-7.93V12c0-4.08-3.05-7.44-7-7.93z"/>
</svg>
